<svg id="Layer_1" data-name="Layer 1" xmlns="http://www.w3.org/2000/svg" viewBox="0 0 208 222"><defs><style>.cls-1{fill:#30200f;}</style></defs><g id="eZfcLl"><path class="cls-1" d="M196.72,72.46l.48,14.35a91.62,91.62,0,0,1-21.37,43.71,172.94,172.94,0,0,1-17.7,18c-17,14.34-34.29,28.23-52,42.71a1.64,1.64,0,0,1-2.07,0c-17.72-14.49-35-28.38-52-42.71a172.83,172.83,0,0,1-17.41-17.66A92.42,92.42,0,0,1,13,87.16a1.87,1.87,0,0,1,0-.34V74.48a1.71,1.71,0,0,1,.19-.76,5.09,5.09,0,0,0,.54-1.25c4.21-20.32,18.5-34.66,37.76-37.86,20.91-3.48,41.51,5.66,51.82,23h0a1.62,1.62,0,0,0,2.58.27c4.37-4.8,8.3-9.91,13.24-13.73,26.55-20.53,65.75-9.2,75.71,21.58C195.56,67.94,196.13,70.2,196.72,72.46Z"/></g></svg>