<svg id="Layer_1" data-name="Layer 1" xmlns="http://www.w3.org/2000/svg" viewBox="0 0 208 222"><defs><style>.cls-1{fill:#30200f;}</style></defs><g id="GdWmIm"><path class="cls-1" d="M135.28,130.44c13.73,13.66,27.32,27,40.62,40.6,2.14,2.19,4.31,5.74,4.08,8.46s-3.13,6.45-5.57,7.11c-2.74.74-7.16-.54-9.32-2.57-10.6-9.92-20.72-20.36-30.94-30.68-3.58-3.62-7-7.43-10.66-11.39C106.85,153.4,89.32,157,70.4,151.69A58.1,58.1,0,0,1,37,127.09C21.07,103,24.86,70.26,45.8,50.59a60.28,60.28,0,0,1,77.79-4.05C143.3,61.43,158.27,95.11,135.28,130.44Zm-5.46-36.26A42.83,42.83,0,0,0,87.27,51.32c-23.58-.27-43.16,19.31-43,43a42.79,42.79,0,0,0,85.57-.17Z"/></g></svg>