<svg id="Layer_1" data-name="Layer 1" xmlns="http://www.w3.org/2000/svg" viewBox="0 0 208 222"><defs><style>.cls-1{fill:linen;}</style></defs><g id="DFzkos"><path class="cls-1" d="M34,187a30.52,30.52,0,0,0-1.73-2.89c-6.85-8.79-13.72-17.56-20.78-26.58,1.18-1.12,2-2.09,3.05-2.88q15.92-12.51,31.87-25c9.67-7.54,20.19-8.9,31.44-4q25.44,11,50.83,22c6.89,3,9.55,8.91,6.89,14.81-2.57,5.69-8.53,7.63-15.24,4.78-11.48-4.89-22.88-10-34.41-14.73-1.61-.67-5-.65-5.48.2-1.7,3.13,1.45,3.73,3.48,4.61,11.44,5,22.86,10,34.36,14.86,12.76,5.39,23.82-2.25,23.65-16a7,7,0,0,1,2.27-4.86q14.81-11.9,29.92-23.4c5.5-4.2,11.72-3.53,15.52,1.35s3,11.24-2.35,15.43c-20,15.77-40.16,31.42-60.23,47.13-4.07,3.2-8.4,3.3-13.19,1.82-17-5.28-34.14-10.1-51-15.7C54.2,175,46.94,176,40.29,182.21,38.63,183.76,36.66,185,34,187Z"/><path class="cls-1" d="M176,73.65a46.72,46.72,0,1,1-47-46.57A47,47,0,0,1,176,73.65Zm-42.19,27a13,13,0,0,1,1.45-.69c10-3.28,14.09-9,12.91-17.85-1-7.62-7.47-12.73-16.84-13.39-2.15-.15-4.51,0-6.35-.93-1.67-.81-3.94-2.92-3.83-4.27.15-1.75,2.18-4.39,3.81-4.74,3.08-.67,7.29-1.18,9.54.38,5,3.45,8.56.87,12.71-.69-1.73-5.49-4.1-8-10.36-10-2.46-.81-3.64-1.82-3.39-4.46a19,19,0,0,0-.41-3.88h-7.82l-.42,7a4.74,4.74,0,0,1-1,.65c-10.16,3.24-14.71,9-13.73,17.36,1,8.22,7.5,13.33,17.89,14.07,2,.15,4.23.05,5.84,1s3.47,2.89,3.67,4.58c.16,1.3-1.9,3.89-3.3,4.15-3.3.6-7.66,1.45-10-.14-5.15-3.46-8.84-.93-13.28.82,2.43,6.9,8,9.28,13.88,11,.18,2.62.34,4.88.5,7.21h7.87C133.34,105.18,133.55,102.9,133.76,100.64Z"/></g></svg>