<?xml version="1.0" encoding="utf-8"?>
<!-- Generator: Adobe Illustrator 25.4.1, SVG Export Plug-In . SVG Version: 6.00 Build 0)  -->
<svg version="1.1" id="Layer_1" xmlns="http://www.w3.org/2000/svg" xmlns:xlink="http://www.w3.org/1999/xlink" x="0px" y="0px"
	 viewBox="0 0 387.1 387.1" style="enable-background:new 0 0 387.1 387.1;" xml:space="preserve">
<style type="text/css">
	.st0{fill:#FFFFFF;}
</style>
<g>
	<path class="st0" d="M190.6,0c1.9,0,3.9,0,5.8,0c2.1,0.6,4.2,1,6.1,1.8c5,1.9,8.8,5.5,12.5,9.2c16.5,16.4,33,32.9,49.4,49.3
		c0.4,0.4,0.9,0.8,1.6,1.5c0-4.7,0-9.1,0-13.4c0.1-13.3,10.8-24,24-24.1c8.3-0.1,16.6,0,24.8,0c1.5,0,3,0.2,4.5,0.5
		c11.5,2.5,19.3,12.2,19.3,24c0,28,0,56,0,84c0,1.1,0.3,1.9,1.1,2.7c8.7,8.6,17.4,17.3,26,26c4.5,4.6,9.1,9.2,13.5,13.9
		c2.9,3.1,5.4,6.6,6.6,10.7c0.5,1.5,0.8,3.1,1.2,4.6c0,1.9,0,3.9,0,5.8c-0.1,0.2-0.2,0.4-0.3,0.6c-2.2,12.8-11.6,20.7-24.6,20.7
		c-7.3,0-14.5,0-21.8,0c-0.6,0-1.1,0-1.8,0c0,0.9,0,1.6,0,2.3c0,47.5,0,94.9,0,142.4c0,10-4.6,17.5-13.5,22.1
		c-2.4,1.2-5.1,1.7-7.7,2.6c-25.2,0-50.3,0-75.5,0c0-12.4,0-24.8,0-37.2c0-27.8,0-55.7,0-83.5c0-13.6-10.6-24.3-24.2-24.4
		c-16.2-0.1-32.5,0-48.7,0c-1.5,0-3.1,0.2-4.6,0.5c-11.5,2.5-19.2,12.2-19.2,24c0,40.2,0,80.4,0,120.6c-25.2,0-50.3,0-75.5,0
		c-0.1-0.1-0.3-0.2-0.4-0.2c-10.4-1.1-21-10.8-21-25.4c0.2-47.2,0.1-94.4,0.1-141.6c0-0.7,0-1.4,0-2.1c-0.8,0-1.4,0-1.9,0
		c-7.6,0-15.3,0.1-22.9,0c-10.4-0.1-19.4-6.9-22.4-16.8c-0.5-1.5-0.7-3-1.1-4.5c0-1.9,0-3.9,0-5.8c0.1-0.2,0.2-0.4,0.2-0.6
		c0.5-4.3,2.2-8.2,4.9-11.5c2.9-3.6,6-7,9.3-10.3c33.9-33.9,67.8-67.8,101.7-101.7c17.3-17.2,34.5-34.5,51.8-51.7
		c1.1-1.1,2.2-2.2,3.3-3.3C176.7,6.1,182.6,1.2,190.6,0z"/>
</g>
</svg>
