<?xml version="1.0" encoding="utf-8"?>
<!-- Generator: Adobe Illustrator 25.4.1, SVG Export Plug-In . SVG Version: 6.00 Build 0)  -->
<svg version="1.1" id="Layer_1" xmlns="http://www.w3.org/2000/svg" xmlns:xlink="http://www.w3.org/1999/xlink" x="0px" y="0px"
	 viewBox="0 0 152.8 152.6" style="enable-background:new 0 0 152.8 152.6;" xml:space="preserve">
<style type="text/css">
	.st0{fill:#FFFFFF;}
</style>
<g id="GdWmIm">
	<path class="st0" d="M108.1,96.2c13.7,13.7,27.3,27,40.6,40.6c2.1,2.2,4.3,5.7,4.1,8.5s-3.1,6.4-5.6,7.1c-2.7,0.7-7.2-0.5-9.3-2.6
		c-10.6-9.9-20.7-20.4-30.9-30.7c-3.6-3.6-7-7.4-10.7-11.4c-16.6,11.4-34.2,15-53.1,9.7c-13.8-3.8-25.7-12.6-33.4-24.6
		C-6.1,68.8-2.3,36,18.6,16.4C40.1-3.8,73-5.5,96.4,12.3C116.1,27.2,131.1,60.9,108.1,96.2z M102.6,59.9c0-23.6-19-42.7-42.5-42.9
		c-23.6-0.3-43.2,19.3-43,43c0.4,23.6,19.9,42.5,43.5,42.1C83.7,101.7,102.4,83,102.6,59.9L102.6,59.9z"/>
</g>
</svg>
